# xmcd CD database file
#
# Track frame offsets:
#	150
#	19787
#	34554
#	53536
#	66910
#	83068
#	100794
#	115959
#	136648
#	149935
#	166173
#	183549
#	205176
#	226045
#	246823
#	259118
#
# Disc length: 3786 seconds
#
# Revision: 0
# Processed by: cddbd v1.5.2PL0 Copyright (c) Steve Scherf et al.
# Submitted via: CDex 1.50beta10
#
DISCID=d20ec810
DTITLE=Various Artist - From the lone star to the Gulf Coast
DYEAR=2005
DGENRE=Blues
TTITLE0=John Autin - I miss my darlin' New Orleans
TTITLE1=B and the Buzz - Do you know what it means to miss New Orleans?
TTITLE2=Jonno - Beautiful strange
TTITLE3=Kenny Taylor - Where were you when the levee broke?
TTITLE4=Bart Ramsey - Back in New Orleans
TTITLE5=Rockin' Jake feat Kenny Taylor - Waves of sadness
TTITLE6=Greg Finsley - To fall in love
TTITLE7=Crawfish - Bogged down in the bayou
TTITLE8=Cool Bone - I found a new baby
TTITLE9=Ken Jameson - Down in New Orleans
TTITLE10=Dennis Cavalier - Fess it up
TTITLE11=Nitzinger - Shotgun Sally
TTITLE12=Dennis Cavalier - New Orleans rising
TTITLE13=D.O.M. feat Buddy Whittington - Mardi gras
TTITLE14=Big Daddy O' - Louisiana moon
TTITLE15=Rockin' Jake - Back to the Big Easy
EXTD=YEAR: 2005
EXTT0=
EXTT1=
EXTT2=
EXTT3=
EXTT4=
EXTT5=
EXTT6=
EXTT7=
EXTT8=
EXTT9=
EXTT10=
EXTT11=
EXTT12=
EXTT13=
EXTT14=
EXTT15=
PLAYORDER=
